# 3ds Max Wavefront OBJ Exporter v0.97b - (c)2007 guruware
# File Created: 28.06.2010 21:36:02

mtllib AirConditioner.mtl

#
# object Box01
#

v  60.3965 47.6190 54.5788
v  62.6306 47.6190 54.0419
v  63.3700 47.6190 52.2422
v  3.9011 47.6190 54.5788
v  2.1412 47.6190 53.9147
v  63.3700 47.6190 2.6557
v  62.8850 47.6190 0.2461
v  1.0989 47.6190 51.8315
v  4.0568 47.6190 -0.3663
v  2.0796 47.6190 0.4743
v  1.0989 47.6190 2.2436
v  60.2564 47.6190 -0.3663
v  62.6306 0.0000 54.0419
v  60.3965 0.0000 54.5788
v  3.9011 0.0000 54.5788
v  2.1412 0.0000 53.9147
v  62.8850 0.0000 0.2461
v  63.3700 0.0000 2.6557
v  63.3700 0.0000 52.2422
v  2.0796 0.0000 0.4743
v  4.0568 0.0000 -0.3663
v  60.2564 0.0000 -0.3663
v  1.0989 0.0000 51.8315
v  1.0989 0.0000 2.2436
# 24 vertices

vn 0.0000 1.0000 -0.0000
vn 0.2337 0.0000 0.9723
vn 0.1176 0.0000 0.9931
vn -0.1794 0.0000 0.9838
vn -0.3530 0.0000 0.9356
vn 0.9803 0.0000 -0.1973
vn 0.9951 0.0000 -0.0991
vn 0.9811 0.0000 0.1937
vn 0.9250 0.0000 0.3800
vn -0.3913 0.0000 -0.9203
vn -0.1996 0.0000 -0.9799
vn 0.1142 0.0000 -0.9935
vn 0.2269 0.0000 -0.9739
vn -0.8943 0.0000 0.4475
vn -0.9732 0.0000 0.2299
vn -0.9682 0.0000 -0.2504
vn -0.8746 0.0000 -0.4848
# 17 vertex normals

vt 0.3202 0.5642 0.0000
vt 0.3063 0.5609 0.0000
vt 0.3017 0.5497 0.0000
vt 0.6720 0.5642 0.0000
vt 0.6830 0.5601 0.0000
vt 0.3017 0.2409 0.0000
vt 0.3047 0.2259 0.0000
vt 0.6895 0.5471 0.0000
vt 0.6710 0.2220 0.0000
vt 0.6834 0.2273 0.0000
vt 0.6895 0.2383 0.0000
vt 0.3210 0.2220 0.0000
vt 0.5003 0.7495 0.0000
vt 0.5003 0.9472 0.0000
vt 0.4910 0.9498 0.0000
vt 0.4910 0.7521 0.0000
vt 0.2564 0.9498 0.0000
vt 0.2564 0.7521 0.0000
vt 0.2491 0.9498 0.0000
vt 0.2491 0.7521 0.0000
vt 0.7237 0.7521 0.0000
vt 0.7237 0.9498 0.0000
vt 0.7137 0.9498 0.0000
vt 0.7137 0.7521 0.0000
vt 0.5078 0.9498 0.0000
vt 0.5078 0.7521 0.0000
vt 0.9762 0.7521 0.0000
vt 0.9762 0.9498 0.0000
vt 0.9680 0.9498 0.0000
vt 0.9680 0.7521 0.0000
vt 0.7347 0.9498 0.0000
vt 0.7347 0.7521 0.0000
vt 0.2404 0.9498 0.0000
vt 0.2404 0.7521 0.0000
vt 0.0345 0.9498 0.0000
vt 0.0345 0.7521 0.0000
vt 0.0272 0.9498 0.0000
vt 0.0272 0.7521 0.0000
# 38 texture coords

g Box01
usemtl 01___Default
s 4
f 1/1/1 2/2/1 3/3/1 4/4/1 
f 5/5/1 4/4/1 3/3/1 6/6/1 
f 5/5/1 6/6/1 7/7/1 8/8/1 
f 9/9/1 10/10/1 11/11/1 12/12/1 
f 7/7/1 12/12/1 11/11/1 8/8/1 
s 8
f 13/13/2 2/14/2 1/15/3 14/16/3 
f 14/16/3 1/15/3 4/17/4 15/18/4 
f 15/18/4 4/17/4 5/19/5 16/20/5 
s 16
f 17/21/6 7/22/6 6/23/7 18/24/7 
f 18/24/7 6/23/7 3/25/8 19/26/8 
f 19/26/8 3/25/8 2/14/9 13/13/9 
s 32
f 20/27/10 10/28/10 9/29/11 21/30/11 
f 21/30/11 9/29/11 12/31/12 22/32/12 
f 22/32/12 12/31/12 7/22/13 17/21/13 
s 64
f 16/20/14 5/19/14 8/33/15 23/34/15 
f 23/34/15 8/33/15 11/35/16 24/36/16 
f 24/36/16 11/35/16 10/37/17 20/38/17 
# 17 polygons

